<svg width="183" height="13" fill="none" xmlns="http://www.w3.org/2000/svg"><path d="M10.469 1.164l-.79 3.43H9.4l-.032-.86a3.039 3.039 0 0 0-.18-.836 1.69 1.69 0 0 0-.421-.632 1.885 1.885 0 0 0-.711-.422 2.772 2.772 0 0 0-.953-.157c-.933 0-1.748.256-2.446.766-.89.651-1.588 1.57-2.093 2.758a7.54 7.54 0 0 0-.626 2.976c0 1.027.3 1.847.899 2.461.599.61 1.378.915 2.336.915.724 0 1.367-.162 1.93-.485.567-.323 1.093-.82 1.578-1.492h.367c-.573.911-1.208 1.583-1.906 2.016-.698.427-1.534.64-2.508.64-.865 0-1.63-.18-2.297-.539a3.69 3.69 0 0 1-1.523-1.531A4.442 4.442 0 0 1 .29 8.055c0-1.157.31-2.282.93-3.375a6.802 6.802 0 0 1 2.547-2.578c1.083-.625 2.174-.938 3.273-.938.516 0 1.094.122 1.734.367.282.104.485.157.61.157a.665.665 0 0 0 .328-.079c.094-.052.25-.2.469-.445h.289zM17.219 12H9.367l.11-.29c.416-.01.695-.043.835-.1a1.09 1.09 0 0 0 .485-.368c.161-.24.333-.672.515-1.297L13.18 3.5c.156-.531.234-.922.234-1.172a.543.543 0 0 0-.219-.46c-.14-.11-.409-.165-.804-.165a2.23 2.23 0 0 1-.211-.008l.093-.289h4.32l-.062.29c-.484 0-.828.046-1.031.14a1.192 1.192 0 0 0-.508.46c-.094.142-.247.579-.46 1.313l-1.837 6.336c-.14.48-.21.813-.21 1 0 .125.07.245.21.36.089.078.29.117.602.117h1.023c.745 0 1.336-.094 1.774-.281.323-.141.62-.352.89-.633.146-.156.404-.544.774-1.164l.203-.352h.289L17.219 12zM27.03 1.164l-.804 8.813c-.042.411-.063.682-.063.812 0 .208.04.367.117.477a.896.896 0 0 0 .399.336c.172.072.458.109.86.109l-.087.289H23.28l.086-.29h.18c.338 0 .614-.072.828-.218.151-.099.268-.263.352-.492.057-.162.111-.542.164-1.14l.125-1.344h-3.032l-1.078 1.46c-.244.329-.398.566-.46.711a.983.983 0 0 0-.094.399c0 .167.067.31.203.43.135.12.36.184.672.195L21.14 12h-3.133l.086-.29a1.664 1.664 0 0 0 1.015-.382c.297-.245.737-.763 1.32-1.555l6.329-8.609h.273zm-1.547 2.602l-3.07 4.18h2.664l.406-4.18zM35.22 12l-1.696-5.148a5.815 5.815 0 0 1-1.218-.118l-.914 3.204c-.12.416-.18.768-.18 1.054 0 .219.076.39.227.516.114.094.427.161.937.203l-.07.289h-4.102l.086-.29c.385-.015.646-.054.781-.116a.994.994 0 0 0 .47-.36c.166-.244.34-.677.523-1.296l1.851-6.399c.125-.427.188-.758.188-.992a.769.769 0 0 0-.297-.61c-.193-.166-.472-.247-.836-.242l.093-.289h3.454c1.156 0 1.99.219 2.5.657.51.437.765 1.013.765 1.726 0 .682-.263 1.307-.789 1.875-.52.563-1.237.92-2.148 1.07l1.031 3.102c.25.76.5 1.255.75 1.484.25.23.654.36 1.21.39l-.085.29H35.22zm-2.782-5.71c.334.046.63.07.891.07.896 0 1.604-.248 2.125-.743.521-.5.781-1.12.781-1.86 0-.577-.164-1.02-.492-1.327-.323-.308-.81-.461-1.46-.461-.167 0-.365.02-.594.062l-1.25 4.258zm14.157-5.126l-.805 8.813a10.06 10.06 0 0 0-.062.812c0 .208.039.367.117.477a.895.895 0 0 0 .398.336c.172.072.459.109.86.109l-.086.289h-4.172l.086-.29h.18c.338 0 .614-.072.828-.218.15-.099.268-.263.351-.492.057-.162.112-.542.164-1.14l.125-1.344h-3.031l-1.078 1.46c-.245.329-.399.566-.461.711a.983.983 0 0 0-.094.399c0 .167.068.31.203.43.136.12.36.184.672.195l-.086.289H37.57l.086-.29a1.664 1.664 0 0 0 1.016-.382c.297-.245.737-.763 1.32-1.555l6.328-8.609h.274zm-1.547 2.602l-3.07 4.18h2.664l.406-4.18zM52.852 12V.625h3.984c1.38 0 2.427.266 3.14.797.714.526 1.07 1.3 1.07 2.32 0 .557-.142 1.05-.429 1.477a2.49 2.49 0 0 1-1.195.93c.583.145 1.042.44 1.375.882.338.443.508.985.508 1.625 0 1.094-.35 1.922-1.047 2.485-.698.562-1.693.849-2.985.859h-4.421zm2.343-4.953v3.07h2.008c.552 0 .982-.13 1.29-.39.312-.266.468-.63.468-1.094 0-1.042-.54-1.57-1.617-1.586h-2.149zm0-1.656h1.735c1.182-.021 1.773-.493 1.773-1.414 0-.516-.15-.886-.453-1.11-.297-.229-.768-.344-1.414-.344h-1.64v2.868zm14.297 4.265h-4.11L64.603 12H62.11L66.344.625h2.172L72.773 12h-2.492l-.789-2.344zm-3.476-1.898h2.843L67.43 3.5l-1.413 4.258zm12.03.078H76.18V12h-2.344V.625h4.227c1.343 0 2.38.3 3.109.898.729.6 1.094 1.446 1.094 2.54 0 .776-.17 1.424-.508 1.945-.334.515-.841.927-1.524 1.234l2.461 4.649V12H80.18l-2.133-4.164zM76.18 5.937h1.89c.589 0 1.045-.148 1.368-.445.322-.302.484-.716.484-1.242 0-.536-.154-.958-.461-1.266-.302-.307-.768-.46-1.398-.46H76.18v3.413zm16.047-3.414h-3.485V12h-2.344V2.523h-3.437V.625h9.266v1.898zM102.828 12h-2.344V7.125h-4.57V12H93.57V.625h2.344v4.61h4.57V.624h2.344V12zm11.399-5.43c0 1.12-.198 2.102-.594 2.946-.396.843-.964 1.494-1.703 1.953-.735.458-1.578.687-2.532.687-.942 0-1.783-.226-2.523-.68-.74-.453-1.313-1.098-1.719-1.937-.406-.844-.612-1.812-.617-2.906V6.07c0-1.12.201-2.104.602-2.953.406-.854.976-1.508 1.711-1.96.739-.46 1.583-.688 2.531-.688.948 0 1.789.229 2.523.687.74.453 1.31 1.107 1.711 1.961.406.85.61 1.83.61 2.946v.507zm-2.375-.515c0-1.193-.214-2.1-.641-2.72-.427-.619-1.037-.929-1.828-.929-.787 0-1.393.308-1.821.922-.427.61-.643 1.505-.648 2.688v.554c0 1.162.214 2.063.641 2.703.427.641 1.041.961 1.843.961.787 0 1.391-.307 1.813-.921.422-.62.635-1.521.641-2.704v-.554zM115.93 12V.625h3.5c1 0 1.893.227 2.679.68a4.674 4.674 0 0 1 1.852 1.922c.443.828.664 1.77.664 2.828v.523c0 1.057-.219 1.998-.656 2.82a4.655 4.655 0 0 1-1.836 1.915c-.792.453-1.685.682-2.68.687h-3.523zm2.343-9.477v7.594h1.133c.917 0 1.617-.3 2.102-.898.484-.6.732-1.456.742-2.57v-.602c0-1.156-.24-2.031-.719-2.625-.479-.6-1.179-.899-2.101-.899h-1.157zm15.11-1.898l2.922 8.25 2.906-8.25h3.078V12h-2.351V8.89l.234-5.367-3.07 8.477h-1.61l-3.062-8.469.234 5.36V12h-2.344V.625h3.063zm17.515 9.031h-4.109L146.008 12h-2.492L147.75.625h2.172L154.18 12h-2.492l-.79-2.344zm-3.476-1.898h2.844l-1.43-4.258-1.414 4.258zm10.164 2.36h4.976V12h-7.32V.625h2.344v9.492zm12.906-.462h-4.109L165.602 12h-2.493L167.344.625h2.172L173.773 12h-2.492l-.789-2.344zm-3.476-1.898h2.843L168.43 3.5l-1.414 4.258zm15.445-5.235h-3.484V12h-2.344V2.523h-3.438V.625h9.266v1.898z" fill="#fff"/></svg>