<svg width="183" height="13" viewBox="0 0 183 13" fill="none" xmlns="http://www.w3.org/2000/svg">
<path d="M10.4688 1.16406L9.67969 4.59375H9.39844L9.36719 3.73438C9.34115 3.42188 9.28125 3.14323 9.1875 2.89844C9.09375 2.65365 8.95312 2.44271 8.76562 2.26562C8.57812 2.08333 8.34115 1.94271 8.05469 1.84375C7.76823 1.73958 7.45052 1.6875 7.10156 1.6875C6.16927 1.6875 5.35417 1.94271 4.65625 2.45312C3.76562 3.10417 3.06771 4.02344 2.5625 5.21094C2.14583 6.1901 1.9375 7.18229 1.9375 8.1875C1.9375 9.21354 2.23698 10.0339 2.83594 10.6484C3.4349 11.2578 4.21354 11.5625 5.17188 11.5625C5.89583 11.5625 6.53906 11.401 7.10156 11.0781C7.66927 10.7552 8.19531 10.2578 8.67969 9.58594H9.04688C8.47396 10.4974 7.83854 11.1693 7.14062 11.6016C6.44271 12.0286 5.60677 12.2422 4.63281 12.2422C3.76823 12.2422 3.0026 12.0625 2.33594 11.7031C1.66927 11.3385 1.16146 10.8281 0.8125 10.1719C0.463542 9.51562 0.289062 8.8099 0.289062 8.05469C0.289062 6.89844 0.598958 5.77344 1.21875 4.67969C1.83854 3.58594 2.6875 2.72656 3.76562 2.10156C4.84896 1.47656 5.9401 1.16406 7.03906 1.16406C7.55469 1.16406 8.13281 1.28646 8.77344 1.53125C9.05469 1.63542 9.25781 1.6875 9.38281 1.6875C9.50781 1.6875 9.61719 1.66146 9.71094 1.60938C9.80469 1.55729 9.96094 1.40885 10.1797 1.16406H10.4688ZM17.2188 12H9.36719L9.47656 11.7109C9.89323 11.7005 10.1719 11.6667 10.3125 11.6094C10.5312 11.5156 10.6927 11.3932 10.7969 11.2422C10.9583 11.0026 11.1302 10.5703 11.3125 9.94531L13.1797 3.5C13.3359 2.96875 13.4141 2.57812 13.4141 2.32812C13.4141 2.13021 13.3411 1.97656 13.1953 1.86719C13.0547 1.75781 12.7865 1.70312 12.3906 1.70312C12.3021 1.70312 12.2318 1.70052 12.1797 1.69531L12.2734 1.40625H16.5938L16.5312 1.69531C16.0469 1.69531 15.7031 1.74219 15.5 1.83594C15.2969 1.92969 15.1276 2.08333 14.9922 2.29688C14.8984 2.4375 14.7448 2.875 14.5312 3.60938L12.6953 9.94531C12.5547 10.4245 12.4844 10.7578 12.4844 10.9453C12.4844 11.0703 12.5547 11.1901 12.6953 11.3047C12.7839 11.3828 12.9844 11.4219 13.2969 11.4219H14.3203C15.0651 11.4219 15.6562 11.3281 16.0938 11.1406C16.4167 11 16.7135 10.7891 16.9844 10.5078C17.1302 10.3516 17.388 9.96354 17.7578 9.34375L17.9609 8.99219H18.25L17.2188 12ZM27.0312 1.16406L26.2266 9.97656C26.1849 10.388 26.1641 10.6589 26.1641 10.7891C26.1641 10.9974 26.2031 11.1562 26.2812 11.2656C26.3802 11.4167 26.513 11.5286 26.6797 11.6016C26.8516 11.6745 27.138 11.7109 27.5391 11.7109L27.4531 12H23.2812L23.3672 11.7109H23.5469C23.8854 11.7109 24.1615 11.638 24.375 11.4922C24.526 11.3932 24.6432 11.2292 24.7266 11C24.7839 10.8385 24.8385 10.4583 24.8906 9.85938L25.0156 8.51562H21.9844L20.9062 9.97656C20.6615 10.3047 20.5078 10.5417 20.4453 10.6875C20.3828 10.8281 20.3516 10.9609 20.3516 11.0859C20.3516 11.2526 20.4193 11.3958 20.5547 11.5156C20.6901 11.6354 20.9141 11.7005 21.2266 11.7109L21.1406 12H18.0078L18.0938 11.7109C18.4792 11.6953 18.8177 11.5677 19.1094 11.3281C19.4062 11.0833 19.8464 10.5651 20.4297 9.77344L26.7578 1.16406H27.0312ZM25.4844 3.76562L22.4141 7.94531H25.0781L25.4844 3.76562ZM35.2188 12L33.5234 6.85156C33.1276 6.85677 32.7214 6.81771 32.3047 6.73438L31.3906 9.9375C31.2708 10.3542 31.2109 10.7057 31.2109 10.9922C31.2109 11.2109 31.2865 11.3828 31.4375 11.5078C31.5521 11.6016 31.8646 11.6693 32.375 11.7109L32.3047 12H28.2031L28.2891 11.7109C28.6745 11.6953 28.9349 11.6562 29.0703 11.5938C29.2839 11.5052 29.4401 11.3854 29.5391 11.2344C29.7057 10.9896 29.8802 10.5573 30.0625 9.9375L31.9141 3.53906C32.0391 3.11198 32.1016 2.78125 32.1016 2.54688C32.1016 2.30729 32.0026 2.10417 31.8047 1.9375C31.612 1.77083 31.3333 1.6901 30.9688 1.69531L31.0625 1.40625H34.5156C35.6719 1.40625 36.5052 1.625 37.0156 2.0625C37.526 2.5 37.7812 3.07552 37.7812 3.78906C37.7812 4.47135 37.5182 5.09635 36.9922 5.66406C36.4714 6.22656 35.7552 6.58333 34.8438 6.73438L35.875 9.83594C36.125 10.5964 36.375 11.0911 36.625 11.3203C36.875 11.5495 37.2786 11.6797 37.8359 11.7109L37.75 12H35.2188ZM32.4375 6.28906C32.7708 6.33594 33.0677 6.35938 33.3281 6.35938C34.224 6.35938 34.9323 6.11198 35.4531 5.61719C35.974 5.11719 36.2344 4.4974 36.2344 3.75781C36.2344 3.17969 36.0703 2.73698 35.7422 2.42969C35.4193 2.1224 34.9323 1.96875 34.2812 1.96875C34.1146 1.96875 33.9167 1.98958 33.6875 2.03125L32.4375 6.28906ZM46.5938 1.16406L45.7891 9.97656C45.7474 10.388 45.7266 10.6589 45.7266 10.7891C45.7266 10.9974 45.7656 11.1562 45.8438 11.2656C45.9427 11.4167 46.0755 11.5286 46.2422 11.6016C46.4141 11.6745 46.7005 11.7109 47.1016 11.7109L47.0156 12H42.8438L42.9297 11.7109H43.1094C43.4479 11.7109 43.724 11.638 43.9375 11.4922C44.0885 11.3932 44.2057 11.2292 44.2891 11C44.3464 10.8385 44.401 10.4583 44.4531 9.85938L44.5781 8.51562H41.5469L40.4688 9.97656C40.224 10.3047 40.0703 10.5417 40.0078 10.6875C39.9453 10.8281 39.9141 10.9609 39.9141 11.0859C39.9141 11.2526 39.9818 11.3958 40.1172 11.5156C40.2526 11.6354 40.4766 11.7005 40.7891 11.7109L40.7031 12H37.5703L37.6562 11.7109C38.0417 11.6953 38.3802 11.5677 38.6719 11.3281C38.9688 11.0833 39.4089 10.5651 39.9922 9.77344L46.3203 1.16406H46.5938ZM45.0469 3.76562L41.9766 7.94531H44.6406L45.0469 3.76562ZM52.8516 12V0.625H56.8359C58.2161 0.625 59.263 0.890625 59.9766 1.42188C60.6901 1.94792 61.0469 2.72135 61.0469 3.74219C61.0469 4.29948 60.9036 4.79167 60.6172 5.21875C60.3307 5.64062 59.9323 5.95052 59.4219 6.14844C60.0052 6.29427 60.4635 6.58854 60.7969 7.03125C61.1354 7.47396 61.3047 8.01562 61.3047 8.65625C61.3047 9.75 60.9557 10.5781 60.2578 11.1406C59.5599 11.7031 58.5651 11.9896 57.2734 12H52.8516ZM55.1953 7.04688V10.1172H57.2031C57.7552 10.1172 58.1849 9.98698 58.4922 9.72656C58.8047 9.46094 58.9609 9.09635 58.9609 8.63281C58.9609 7.59115 58.4219 7.0625 57.3438 7.04688H55.1953ZM55.1953 5.39062H56.9297C58.112 5.36979 58.7031 4.89844 58.7031 3.97656C58.7031 3.46094 58.5521 3.09115 58.25 2.86719C57.9531 2.63802 57.4818 2.52344 56.8359 2.52344H55.1953V5.39062ZM69.4922 9.65625H65.3828L64.6016 12H62.1094L66.3438 0.625H68.5156L72.7734 12H70.2812L69.4922 9.65625ZM66.0156 7.75781H68.8594L67.4297 3.5L66.0156 7.75781ZM78.0469 7.83594H76.1797V12H73.8359V0.625H78.0625C79.4062 0.625 80.4427 0.924479 81.1719 1.52344C81.901 2.1224 82.2656 2.96875 82.2656 4.0625C82.2656 4.83854 82.0964 5.48698 81.7578 6.00781C81.4245 6.52344 80.9167 6.9349 80.2344 7.24219L82.6953 11.8906V12H80.1797L78.0469 7.83594ZM76.1797 5.9375H78.0703C78.6589 5.9375 79.1146 5.78906 79.4375 5.49219C79.7604 5.1901 79.9219 4.77604 79.9219 4.25C79.9219 3.71354 79.7682 3.29167 79.4609 2.98438C79.1589 2.67708 78.6927 2.52344 78.0625 2.52344H76.1797V5.9375ZM92.2266 2.52344H88.7422V12H86.3984V2.52344H82.9609V0.625H92.2266V2.52344ZM102.828 12H100.484V7.125H95.9141V12H93.5703V0.625H95.9141V5.23438H100.484V0.625H102.828V12ZM114.227 6.57031C114.227 7.6901 114.029 8.67188 113.633 9.51562C113.237 10.3594 112.669 11.0104 111.93 11.4688C111.195 11.9271 110.352 12.1562 109.398 12.1562C108.456 12.1562 107.615 11.9297 106.875 11.4766C106.135 11.0234 105.562 10.3776 105.156 9.53906C104.75 8.69531 104.544 7.72656 104.539 6.63281V6.07031C104.539 4.95052 104.74 3.96615 105.141 3.11719C105.547 2.26302 106.117 1.60938 106.852 1.15625C107.591 0.697917 108.435 0.46875 109.383 0.46875C110.331 0.46875 111.172 0.697917 111.906 1.15625C112.646 1.60938 113.216 2.26302 113.617 3.11719C114.023 3.96615 114.227 4.94792 114.227 6.0625V6.57031ZM111.852 6.05469C111.852 4.86198 111.638 3.95573 111.211 3.33594C110.784 2.71615 110.174 2.40625 109.383 2.40625C108.596 2.40625 107.99 2.71354 107.562 3.32812C107.135 3.9375 106.919 4.83333 106.914 6.01562V6.57031C106.914 7.73177 107.128 8.63281 107.555 9.27344C107.982 9.91406 108.596 10.2344 109.398 10.2344C110.185 10.2344 110.789 9.92708 111.211 9.3125C111.633 8.69271 111.846 7.79167 111.852 6.60938V6.05469ZM115.93 12V0.625H119.43C120.43 0.625 121.323 0.851562 122.109 1.30469C122.901 1.7526 123.518 2.39323 123.961 3.22656C124.404 4.05469 124.625 4.9974 124.625 6.05469V6.57812C124.625 7.63542 124.406 8.57552 123.969 9.39844C123.536 10.2214 122.924 10.8594 122.133 11.3125C121.341 11.7656 120.448 11.9948 119.453 12H115.93ZM118.273 2.52344V10.1172H119.406C120.323 10.1172 121.023 9.81771 121.508 9.21875C121.992 8.61979 122.24 7.76302 122.25 6.64844V6.04688C122.25 4.89062 122.01 4.01562 121.531 3.42188C121.052 2.82292 120.352 2.52344 119.43 2.52344H118.273ZM133.383 0.625L136.305 8.875L139.211 0.625H142.289V12H139.938V8.89062L140.172 3.52344L137.102 12H135.492L132.43 3.53125L132.664 8.89062V12H130.32V0.625H133.383ZM150.898 9.65625H146.789L146.008 12H143.516L147.75 0.625H149.922L154.18 12H151.688L150.898 9.65625ZM147.422 7.75781H150.266L148.836 3.5L147.422 7.75781ZM157.586 10.1172H162.562V12H155.242V0.625H157.586V10.1172ZM170.492 9.65625H166.383L165.602 12H163.109L167.344 0.625H169.516L173.773 12H171.281L170.492 9.65625ZM167.016 7.75781H169.859L168.43 3.5L167.016 7.75781ZM182.461 2.52344H178.977V12H176.633V2.52344H173.195V0.625H182.461V2.52344Z" fill="white"/>
</svg>
