<svg width="42" height="45" fill="none" xmlns="http://www.w3.org/2000/svg"><circle cx="21" cy="6.515" r="4" transform="rotate(45 21 6.515)" fill="#fff"/><circle cx="29.485" cy="15" r="4" transform="rotate(45 29.485 15)" fill="#fff"/><circle cx="21" cy="23.485" r="4" transform="rotate(45 21 23.485)" fill="#969696"/><circle cx="12.515" cy="15" r="4" transform="rotate(45 12.515 15)" fill="#969696"/><path d="M6.406 43.375a2.453 2.453 0 0 0 1.625-.508c.474-.364.79-.854.946-1.468h.882a3.232 3.232 0 0 1-1.234 2.03 3.463 3.463 0 0 1-2.266.735c-.682-.016-1.255-.203-1.718-.562-.464-.36-.8-.857-1.008-1.493-.203-.635-.268-1.351-.196-2.148l.032-.336a6.274 6.274 0 0 1 .398-1.594 4.82 4.82 0 0 1 .828-1.367 3.747 3.747 0 0 1 1.227-.945c.479-.235 1.018-.344 1.617-.328.865.02 1.552.312 2.063.875.51.562.75 1.276.718 2.14l-.883-.008c.01-.65-.158-1.177-.507-1.578-.35-.4-.826-.612-1.43-.633a2.524 2.524 0 0 0-1.71.563c-.496.396-.868.956-1.118 1.68a6.616 6.616 0 0 0-.352 2.304c.016.839.203 1.485.563 1.938.36.448.867.682 1.523.703zM12.25 44h-.938l2.086-12h.938L12.25 44zM15 39.695a5.529 5.529 0 0 1 .75-2.242c.406-.682.912-1.2 1.516-1.555a3.698 3.698 0 0 1 1.976-.507c.698.01 1.292.203 1.781.578.495.37.855.877 1.079 1.523.229.64.307 1.352.234 2.133l-.016.148c-.156 1.334-.63 2.404-1.422 3.211-.786.808-1.731 1.198-2.835 1.172-.948-.015-1.706-.364-2.274-1.047-.568-.682-.846-1.583-.836-2.703l.024-.445.023-.266zm.906.266a4.335 4.335 0 0 0 .133 1.719c.162.52.417.93.766 1.226.349.297.784.453 1.304.469a2.698 2.698 0 0 0 1.54-.43c.468-.297.854-.716 1.156-1.258.302-.541.497-1.14.586-1.796l.023-.258c.094-1.005-.062-1.826-.469-2.461-.4-.64-.984-.969-1.75-.984-.833-.027-1.554.296-2.164.968-.604.667-.974 1.555-1.11 2.664l-.015.141zm12.992 1.836c.084-.719-.354-1.24-1.312-1.563l-1.344-.398c-1.234-.417-1.818-1.112-1.75-2.086.037-.703.36-1.273.969-1.71.615-.444 1.344-.66 2.187-.65.829.011 1.5.245 2.016.704.516.453.755 1.06.719 1.82h-.922c.031-.505-.128-.917-.477-1.234-.343-.318-.802-.482-1.375-.492-.593 0-1.093.14-1.5.421-.406.276-.635.644-.687 1.102-.078.672.333 1.143 1.234 1.414l.977.281.523.18c1.177.443 1.732 1.164 1.664 2.164-.041.677-.336 1.234-.883 1.672-.541.432-1.242.674-2.101.727l-.32.007a3.852 3.852 0 0 1-1.54-.328c-.458-.213-.81-.51-1.054-.89-.245-.38-.352-.818-.32-1.313l.93.008c0 .531.179.95.538 1.258.36.307.854.466 1.485.476.625 0 1.156-.14 1.593-.422.438-.286.688-.669.75-1.148zm5.946 2.36c-.677-.011-1.263-.199-1.758-.563-.495-.37-.86-.87-1.094-1.5a4.711 4.711 0 0 1-.242-2.055l.023-.266a5.615 5.615 0 0 1 .696-2.226c.39-.708.885-1.247 1.484-1.617a3.406 3.406 0 0 1 1.922-.54c.63.011 1.161.183 1.594.516.437.334.755.797.953 1.39.198.595.26 1.25.187 1.97l-.062.57h-5.852l-.023.188a3.731 3.731 0 0 0 .125 1.632c.161.516.424.927.789 1.235.37.302.812.458 1.328.468.5.016.95-.08 1.352-.289.4-.208.77-.487 1.109-.836l.547.446c-.38.49-.833.862-1.36 1.117a3.77 3.77 0 0 1-1.718.36zm.984-7.97c-.677-.026-1.284.214-1.82.72-.537.505-.94 1.215-1.211 2.132l4.906.008.024-.117c.093-.74-.037-1.375-.391-1.907-.354-.536-.857-.815-1.508-.836z" fill="#fff"/></svg>