<svg width="42" height="40" fill="none" xmlns="http://www.w3.org/2000/svg"><circle cx="15" cy="4" r="4" fill="#fff"/><circle cx="27" cy="4" r="4" fill="#fff"/><circle cx="27" cy="16" r="4" fill="#969696"/><circle cx="15" cy="16" r="4" fill="#969696"/><path d="M4.102 39h-.938l1.477-8.453h.93L4.1 39zm.796-10.898c.026-.339.25-.553.672-.641.203.036.347.102.43.195.089.089.146.237.172.446-.052.197-.128.343-.227.437-.099.089-.247.154-.445.195-.422-.062-.622-.273-.602-.632zm4.086 2.445l-.28 1.445c.374-.52.806-.92 1.296-1.195a3.04 3.04 0 0 1 1.586-.406c.812.02 1.404.304 1.773.851.37.547.5 1.3.391 2.258l-.922 5.5h-.922l.922-5.516a4.77 4.77 0 0 0 .016-.859c-.089-.927-.594-1.404-1.516-1.43a2.498 2.498 0 0 0-1.531.492c-.474.334-.89.839-1.25 1.516l-1 5.797h-.922l1.469-8.453h.89zm6.625 4.203c.12-.885.362-1.67.727-2.352.365-.687.81-1.198 1.336-1.53a3.137 3.137 0 0 1 1.781-.477c.5.01.956.127 1.367.351.412.219.737.552.977 1l.86-4.742h.921l-2.086 12h-.867l.21-1.125c-.733.885-1.645 1.313-2.733 1.281-.787-.02-1.404-.325-1.852-.914-.443-.594-.675-1.39-.695-2.39a6.15 6.15 0 0 1 .039-.938l.015-.164zm.938.156a7.719 7.719 0 0 0-.047 1.117c.02.714.185 1.276.492 1.688.313.406.755.62 1.328.64.578.016 1.086-.117 1.524-.398a3.69 3.69 0 0 0 1.11-1.125l.679-3.984c-.151-.505-.401-.901-.75-1.188-.344-.291-.784-.445-1.32-.46-.792-.027-1.454.278-1.985.913-.526.63-.864 1.508-1.015 2.633l-.016.164zm10.742 4.25c-.677-.01-1.263-.198-1.758-.562-.494-.37-.86-.87-1.093-1.5a4.711 4.711 0 0 1-.243-2.055l.024-.266a5.613 5.613 0 0 1 .695-2.226c.39-.708.885-1.247 1.484-1.617a3.407 3.407 0 0 1 1.922-.54c.63.011 1.162.183 1.594.516.438.334.755.797.953 1.39.198.595.26 1.25.188 1.97l-.063.57h-5.851l-.024.187a3.731 3.731 0 0 0 .125 1.633c.162.516.425.927.79 1.235.369.302.812.458 1.327.468.5.016.95-.08 1.352-.289.401-.208.77-.487 1.11-.836l.546.446a3.82 3.82 0 0 1-1.36 1.117 3.77 3.77 0 0 1-1.718.36zm.984-7.968c-.677-.026-1.283.213-1.82.718-.536.505-.94 1.216-1.21 2.133l4.905.008.024-.117c.094-.74-.037-1.375-.39-1.907-.355-.536-.858-.815-1.509-.836zm7.18 2.773l2.742-3.414h1.157l-3.47 4.195L38.095 39h-1.032l-1.765-3.563L32.407 39h-1.141l3.609-4.352-2.117-4.101h1.031l1.664 3.414z" fill="#fff"/></svg>