<svg width="42" height="40" viewBox="0 0 42 40" fill="none" xmlns="http://www.w3.org/2000/svg">
<circle cx="15" cy="4" r="4" fill="white"/>
<circle cx="27" cy="4" r="4" fill="white"/>
<circle cx="27" cy="16" r="4" fill="#969696"/>
<circle cx="15" cy="16" r="4" fill="#969696"/>
<path d="M4.10156 39H3.16406L4.64062 30.5469H5.57031L4.10156 39ZM4.89844 28.1016C4.92448 27.763 5.14844 27.5495 5.57031 27.4609C5.77344 27.4974 5.91667 27.5625 6 27.6562C6.08854 27.7448 6.14583 27.8932 6.17188 28.1016C6.11979 28.2995 6.04427 28.4453 5.94531 28.5391C5.84635 28.6276 5.69792 28.6927 5.5 28.7344C5.07812 28.6719 4.8776 28.4609 4.89844 28.1016ZM8.98438 30.5469L8.70312 31.9922C9.07812 31.4714 9.51042 31.0729 10 30.7969C10.4948 30.5156 11.0234 30.3802 11.5859 30.3906C12.3984 30.4115 12.9896 30.6953 13.3594 31.2422C13.7292 31.7891 13.8594 32.5417 13.75 33.5L12.8281 39H11.9062L12.8281 33.4844C12.8594 33.1875 12.8646 32.901 12.8438 32.625C12.7552 31.6979 12.25 31.2214 11.3281 31.1953C10.7812 31.1849 10.2708 31.349 9.79688 31.6875C9.32292 32.0208 8.90625 32.526 8.54688 33.2031L7.54688 39H6.625L8.09375 30.5469H8.98438ZM15.6094 34.75C15.7292 33.8646 15.9714 33.0807 16.3359 32.3984C16.7005 31.7109 17.1458 31.2005 17.6719 30.8672C18.2031 30.5339 18.7969 30.375 19.4531 30.3906C19.9531 30.401 20.4089 30.5182 20.8203 30.7422C21.2318 30.9609 21.5573 31.2943 21.7969 31.7422L22.6562 27H23.5781L21.4922 39H20.625L20.8359 37.875C20.1016 38.7604 19.1901 39.1875 18.1016 39.1562C17.3151 39.1354 16.6979 38.8307 16.25 38.2422C15.8073 37.6484 15.5755 36.8516 15.5547 35.8516C15.5443 35.5286 15.5573 35.2161 15.5938 34.9141L15.6094 34.75ZM16.5469 34.9062C16.5052 35.2552 16.4896 35.6276 16.5 36.0234C16.5208 36.737 16.6849 37.2995 16.9922 37.7109C17.3047 38.1172 17.7474 38.3307 18.3203 38.3516C18.8984 38.3672 19.4062 38.2344 19.8438 37.9531C20.2812 37.6719 20.651 37.2969 20.9531 36.8281L21.6328 32.8438C21.4818 32.3385 21.2318 31.9427 20.8828 31.6562C20.5391 31.3646 20.099 31.2109 19.5625 31.1953C18.7708 31.1693 18.1094 31.474 17.5781 32.1094C17.0521 32.7396 16.7135 33.6172 16.5625 34.7422L16.5469 34.9062ZM27.2891 39.1562C26.612 39.1458 26.026 38.9583 25.5312 38.5938C25.0365 38.224 24.6719 37.724 24.4375 37.0938C24.2083 36.4583 24.1276 35.7734 24.1953 35.0391L24.2188 34.7734C24.2917 33.9922 24.5234 33.25 24.9141 32.5469C25.3047 31.8385 25.7995 31.2995 26.3984 30.9297C26.9974 30.5547 27.638 30.375 28.3203 30.3906C28.9505 30.401 29.4818 30.5729 29.9141 30.9062C30.3516 31.2396 30.6693 31.7031 30.8672 32.2969C31.0651 32.8906 31.1276 33.5469 31.0547 34.2656L30.9922 34.8359H25.1406L25.1172 35.0234C25.0391 35.5911 25.0807 36.1354 25.2422 36.6562C25.4036 37.1719 25.6667 37.5833 26.0312 37.8906C26.401 38.1927 26.8438 38.349 27.3594 38.3594C27.8594 38.375 28.3099 38.2786 28.7109 38.0703C29.112 37.862 29.4818 37.5833 29.8203 37.2344L30.3672 37.6797C29.987 38.1693 29.5339 38.5417 29.0078 38.7969C28.487 39.0469 27.9141 39.1667 27.2891 39.1562ZM28.2734 31.1875C27.5964 31.1615 26.9896 31.401 26.4531 31.9062C25.9167 32.4115 25.513 33.1224 25.2422 34.0391L30.1484 34.0469L30.1719 33.9297C30.2656 33.1901 30.1354 32.5547 29.7812 32.0234C29.4271 31.487 28.9245 31.2083 28.2734 31.1875ZM35.4531 33.9609L38.1953 30.5469H39.3516L35.8828 34.7422L38.0938 39H37.0625L35.2969 35.4375L32.4062 39H31.2656L34.875 34.6484L32.7578 30.5469H33.7891L35.4531 33.9609Z" fill="white"/>
</svg>
