<svg width="42" height="40" viewBox="0 0 42 40" fill="none" xmlns="http://www.w3.org/2000/svg">
<g style="mix-blend-mode:exclusion">
<rect x="1" width="40" height="36" fill="white"/>
<rect x="1" y="12" width="40" height="4" fill="black"/>
<path d="M5.84375 31.3438C6.25 31.3542 6.58854 31.2448 6.85938 31.0156C7.13021 30.7812 7.30729 30.4714 7.39062 30.0859L9.46094 30.0781C9.42448 30.6719 9.23698 31.2057 8.89844 31.6797C8.5651 32.1536 8.11719 32.5234 7.55469 32.7891C6.9974 33.0547 6.40885 33.1797 5.78906 33.1641C4.76302 33.1484 3.95052 32.7943 3.35156 32.1016C2.7526 31.4089 2.46354 30.487 2.48438 29.3359L2.50781 28.9062L2.51562 28.8203C2.65625 27.4453 3.11979 26.3568 3.90625 25.5547C4.69271 24.7474 5.66406 24.3594 6.82031 24.3906C7.77344 24.4115 8.52865 24.724 9.08594 25.3281C9.64844 25.9271 9.92448 26.7188 9.91406 27.7031H7.85938C7.85938 27.25 7.76042 26.8932 7.5625 26.6328C7.36458 26.3724 7.06771 26.2318 6.67188 26.2109C5.61979 26.1797 4.98177 26.9479 4.75781 28.5156C4.67969 29.0833 4.65104 29.5625 4.67188 29.9531C4.72396 30.8646 5.11458 31.3281 5.84375 31.3438ZM12.6406 33H10.4219L12.5078 21H14.7188L12.6406 33ZM19.3516 24.3906C20.0964 24.401 20.737 24.5938 21.2734 24.9688C21.8151 25.3385 22.2109 25.8516 22.4609 26.5078C22.7161 27.1589 22.8073 27.8828 22.7344 28.6797C22.6146 30.0234 22.1458 31.112 21.3281 31.9453C20.5156 32.7734 19.5104 33.1771 18.3125 33.1562C17.5781 33.1458 16.9427 32.9583 16.4062 32.5938C15.8698 32.224 15.474 31.7135 15.2188 31.0625C14.9635 30.4115 14.8724 29.6927 14.9453 28.9062C15.0807 27.5104 15.5547 26.401 16.3672 25.5781C17.1797 24.7552 18.1745 24.3594 19.3516 24.3906ZM17.125 29.7109C17.1354 30.2109 17.2526 30.6068 17.4766 30.8984C17.7005 31.1849 18.0156 31.3333 18.4219 31.3438C19.099 31.3646 19.6302 31.0547 20.0156 30.4141C20.401 29.7682 20.5807 28.9219 20.5547 27.875C20.5339 27.375 20.4115 26.9766 20.1875 26.6797C19.9688 26.3776 19.6536 26.2214 19.2422 26.2109C18.5859 26.1901 18.0599 26.5 17.6641 27.1406C17.2734 27.776 17.0938 28.6328 17.125 29.7109ZM28.2734 30.6172C28.3568 30.2005 28.0677 29.8984 27.4062 29.7109L26.6953 29.5312C25.013 29.0677 24.1953 28.25 24.2422 27.0781C24.2682 26.2812 24.6198 25.6328 25.2969 25.1328C25.9792 24.6276 26.7995 24.3802 27.7578 24.3906C28.7109 24.401 29.4818 24.6536 30.0703 25.1484C30.6589 25.6432 30.9583 26.3021 30.9688 27.125L28.7812 27.1172C28.7917 26.3932 28.4323 26.026 27.7031 26.0156C27.3594 26.0156 27.0599 26.1016 26.8047 26.2734C26.5547 26.4453 26.401 26.6771 26.3438 26.9688C26.2656 27.3854 26.5807 27.6797 27.2891 27.8516L27.6016 27.9219C28.3203 28.0938 28.8698 28.2917 29.25 28.5156C29.6302 28.7344 29.9219 29.0078 30.125 29.3359C30.3333 29.6641 30.4297 30.0573 30.4141 30.5156C30.3984 31.0521 30.224 31.5208 29.8906 31.9219C29.5625 32.3229 29.1094 32.6328 28.5312 32.8516C27.9583 33.0703 27.3542 33.1719 26.7188 33.1562C25.7812 33.1458 25 32.8776 24.375 32.3516C23.75 31.8203 23.4323 31.1354 23.4219 30.2969L25.5 30.3125C25.5208 31.1198 25.9531 31.5286 26.7969 31.5391C27.2031 31.5391 27.5365 31.4557 27.7969 31.2891C28.0625 31.1224 28.2214 30.8984 28.2734 30.6172ZM35.4531 33.1562C34.7135 33.151 34.0573 32.9714 33.4844 32.6172C32.9167 32.2578 32.4922 31.7682 32.2109 31.1484C31.9297 30.5234 31.8203 29.8359 31.8828 29.0859L31.9062 28.7734C31.9844 27.9505 32.224 27.1953 32.625 26.5078C33.026 25.8203 33.5417 25.2917 34.1719 24.9219C34.8021 24.5469 35.5 24.3698 36.2656 24.3906C37.3542 24.4115 38.1771 24.8125 38.7344 25.5938C39.2969 26.3698 39.5104 27.3542 39.375 28.5469L39.25 29.5078H34.0703C34.0495 30.0547 34.1823 30.4922 34.4688 30.8203C34.7552 31.1484 35.1458 31.3177 35.6406 31.3281C36.4427 31.349 37.1458 31.0391 37.75 30.3984L38.7578 31.6484C38.4401 32.1276 37.9818 32.5026 37.3828 32.7734C36.7839 33.0391 36.1406 33.1667 35.4531 33.1562ZM36.1562 26.2109C35.75 26.2005 35.388 26.3281 35.0703 26.5938C34.7578 26.8594 34.4766 27.3203 34.2266 27.9766H37.2578L37.3047 27.7734C37.3359 27.5651 37.3385 27.3672 37.3125 27.1797C37.2604 26.8776 37.1328 26.6432 36.9297 26.4766C36.7266 26.3047 36.4688 26.2161 36.1562 26.2109Z" fill="black"/>
</g>
</svg>
