<svg width="42" height="40" fill="none" xmlns="http://www.w3.org/2000/svg"><path fill="#fff" d="M1 0h40v8H1z"/><path fill="#717171" d="M1 12h40v4H1z"/><path d="M2.68 24.547l-.266 1.375c.76-1.042 1.716-1.552 2.867-1.531.594.01 1.086.159 1.477.445.396.286.64.685.734 1.195a4.242 4.242 0 0 1 1.344-1.218 3.237 3.237 0 0 1 1.68-.422c.802.015 1.396.28 1.78.797.392.51.553 1.218.485 2.125l-.015.18-.93 5.507h-.93l.922-5.523c.031-.308.034-.6.008-.875-.104-.922-.63-1.391-1.578-1.407-.636-.01-1.222.198-1.758.625-.531.422-.865.95-1 1.586L6.531 33h-.93l.938-5.594c.151-1.437-.378-2.174-1.586-2.21-.599-.011-1.156.176-1.672.562-.515.385-.862.864-1.039 1.437l-1 5.805h-.93l1.47-8.453h.898zm14.875 8.61c-.677-.011-1.263-.199-1.758-.563-.495-.37-.86-.87-1.094-1.5a4.713 4.713 0 0 1-.242-2.055l.023-.266a5.615 5.615 0 0 1 .696-2.226c.39-.709.885-1.248 1.484-1.617a3.406 3.406 0 0 1 1.922-.54c.63.011 1.161.183 1.594.516.437.334.755.797.953 1.39.198.595.26 1.25.187 1.97l-.062.57h-5.852l-.023.187a3.733 3.733 0 0 0 .125 1.633c.161.516.424.927.789 1.235.37.302.812.458 1.328.468.5.016.95-.08 1.352-.289.4-.208.77-.487 1.109-.836l.547.446a3.82 3.82 0 0 1-1.36 1.117 3.77 3.77 0 0 1-1.718.36zm.984-7.97c-.677-.026-1.284.214-1.82.72-.537.505-.94 1.215-1.211 2.132l4.906.008.023-.117c.094-.74-.036-1.375-.39-1.907-.354-.536-.857-.815-1.508-.835zm6.117-.64l-.281 1.445c.375-.52.807-.92 1.297-1.195a3.04 3.04 0 0 1 1.586-.406c.812.02 1.404.304 1.773.851.37.547.5 1.3.39 2.258L28.5 33h-.922l.922-5.516a4.77 4.77 0 0 0 .016-.859c-.089-.927-.594-1.404-1.516-1.43a2.498 2.498 0 0 0-1.531.492c-.474.334-.89.839-1.25 1.516l-1 5.797h-.922l1.469-8.453h.89zm11.86 7.39c-.672.844-1.6 1.25-2.782 1.22-.797-.016-1.39-.303-1.78-.86-.392-.563-.532-1.341-.423-2.336l.907-5.414h.921l-.898 5.437c-.031.282-.034.56-.008.836.037.48.18.85.43 1.11.25.26.594.398 1.031.414a3.096 3.096 0 0 0 1.734-.43c.532-.318.875-.732 1.032-1.242l1.047-6.125h.937L37.195 33h-.906l.227-1.063z" fill="#fff"/></svg>