<svg width="42" height="40" viewBox="0 0 42 40" fill="none" xmlns="http://www.w3.org/2000/svg">
<rect x="1" width="40" height="8" fill="white"/>
<rect x="1" y="12" width="40" height="4" fill="#717171"/>
<path d="M2.67969 24.5469L2.41406 25.9219C3.17448 24.8802 4.13021 24.3698 5.28125 24.3906C5.875 24.401 6.36719 24.5495 6.75781 24.8359C7.15365 25.1224 7.39844 25.5208 7.49219 26.0312C7.8776 25.5052 8.32552 25.099 8.83594 24.8125C9.35156 24.5208 9.91146 24.3802 10.5156 24.3906C11.3177 24.4062 11.9115 24.6719 12.2969 25.1875C12.6875 25.6979 12.849 26.4062 12.7812 27.3125L12.7656 27.4922L11.8359 33H10.9062L11.8281 27.4766C11.8594 27.1693 11.862 26.8776 11.8359 26.6016C11.7318 25.6797 11.2057 25.2109 10.2578 25.1953C9.6224 25.1849 9.03646 25.3932 8.5 25.8203C7.96875 26.2422 7.63542 26.7708 7.5 27.4062L6.53125 33H5.60156L6.53906 27.4062C6.6901 25.9688 6.16146 25.2318 4.95312 25.1953C4.35417 25.1849 3.79688 25.3724 3.28125 25.7578C2.76562 26.1432 2.41927 26.6224 2.24219 27.1953L1.24219 33H0.3125L1.78125 24.5469H2.67969ZM17.5547 33.1562C16.8776 33.1458 16.2917 32.9583 15.7969 32.5938C15.3021 32.224 14.9375 31.724 14.7031 31.0938C14.474 30.4583 14.3932 29.7734 14.4609 29.0391L14.4844 28.7734C14.5573 27.9922 14.7891 27.25 15.1797 26.5469C15.5703 25.8385 16.0651 25.2995 16.6641 24.9297C17.263 24.5547 17.9036 24.375 18.5859 24.3906C19.2161 24.401 19.7474 24.5729 20.1797 24.9062C20.6172 25.2396 20.9349 25.7031 21.1328 26.2969C21.3307 26.8906 21.3932 27.5469 21.3203 28.2656L21.2578 28.8359H15.4062L15.3828 29.0234C15.3047 29.5911 15.3464 30.1354 15.5078 30.6562C15.6693 31.1719 15.9323 31.5833 16.2969 31.8906C16.6667 32.1927 17.1094 32.349 17.625 32.3594C18.125 32.375 18.5755 32.2786 18.9766 32.0703C19.3776 31.862 19.7474 31.5833 20.0859 31.2344L20.6328 31.6797C20.2526 32.1693 19.7995 32.5417 19.2734 32.7969C18.7526 33.0469 18.1797 33.1667 17.5547 33.1562ZM18.5391 25.1875C17.862 25.1615 17.2552 25.401 16.7188 25.9062C16.1823 26.4115 15.7786 27.1224 15.5078 28.0391L20.4141 28.0469L20.4375 27.9297C20.5312 27.1901 20.401 26.5547 20.0469 26.0234C19.6927 25.487 19.1901 25.2083 18.5391 25.1875ZM24.6562 24.5469L24.375 25.9922C24.75 25.4714 25.1823 25.0729 25.6719 24.7969C26.1667 24.5156 26.6953 24.3802 27.2578 24.3906C28.0703 24.4115 28.6615 24.6953 29.0312 25.2422C29.401 25.7891 29.5312 26.5417 29.4219 27.5L28.5 33H27.5781L28.5 27.4844C28.5312 27.1875 28.5365 26.901 28.5156 26.625C28.4271 25.6979 27.9219 25.2214 27 25.1953C26.4531 25.1849 25.9427 25.349 25.4688 25.6875C24.9948 26.0208 24.5781 26.526 24.2188 27.2031L23.2188 33H22.2969L23.7656 24.5469H24.6562ZM36.5156 31.9375C35.8438 32.7812 34.9167 33.1875 33.7344 33.1562C32.9375 33.1406 32.3438 32.8542 31.9531 32.2969C31.5625 31.7344 31.4219 30.9557 31.5312 29.9609L32.4375 24.5469H33.3594L32.4609 29.9844C32.4297 30.2656 32.4271 30.5443 32.4531 30.8203C32.4896 31.2995 32.6328 31.6693 32.8828 31.9297C33.1328 32.1901 33.4766 32.3281 33.9141 32.3438C34.5391 32.3698 35.1172 32.2266 35.6484 31.9141C36.1797 31.5964 36.5234 31.1823 36.6797 30.6719L37.7266 24.5469H38.6641L37.1953 33H36.2891L36.5156 31.9375Z" fill="white"/>
</svg>
