<svg width="42" height="40" fill="none" xmlns="http://www.w3.org/2000/svg"><g style="mix-blend-mode:exclusion"><path fill="#fff" d="M1 0h40v36H1z"/><path fill="#000" d="M1 12h40v4H1zm4.844 19.344c.406.01.745-.1 1.015-.328a1.65 1.65 0 0 0 .532-.93l2.07-.008a3.019 3.019 0 0 1-.563 1.602 3.36 3.36 0 0 1-1.343 1.11 3.824 3.824 0 0 1-1.766.374c-1.026-.016-1.838-.37-2.437-1.062-.6-.693-.888-1.615-.868-2.766l.024-.43.008-.086c.14-1.375.604-2.463 1.39-3.265.787-.808 1.758-1.196 2.914-1.164.953.02 1.709.333 2.266.937.562.6.838 1.39.828 2.375H7.86c0-.453-.099-.81-.296-1.07-.198-.26-.495-.401-.891-.422-1.052-.031-1.69.737-1.914 2.305a7.782 7.782 0 0 0-.086 1.437c.052.912.443 1.375 1.172 1.39zM12.64 33h-2.22l2.087-12h2.21L12.64 33zm6.71-8.61c.745.011 1.386.204 1.922.579.542.37.938.883 1.188 1.539.255.65.346 1.375.273 2.172-.12 1.343-.588 2.432-1.406 3.265-.812.828-1.818 1.232-3.015 1.211-.735-.01-1.37-.198-1.907-.562-.536-.37-.932-.88-1.187-1.532-.255-.65-.347-1.37-.274-2.156.136-1.396.61-2.505 1.422-3.328.813-.823 1.807-1.219 2.985-1.187zm-2.226 5.32c.01.5.128.897.352 1.188.224.287.539.435.945.446.677.02 1.208-.29 1.594-.93.385-.646.565-1.492.539-2.539-.021-.5-.143-.898-.367-1.195-.22-.302-.534-.459-.946-.47-.656-.02-1.182.29-1.578.93-.39.636-.57 1.493-.539 2.57zm11.148.907c.084-.416-.205-.719-.867-.906l-.71-.18c-1.683-.463-2.5-1.281-2.454-2.453.026-.797.378-1.445 1.055-1.945.682-.505 1.502-.753 2.46-.742.954.01 1.725.263 2.313.757.589.495.888 1.154.899 1.977l-2.188-.008c.01-.724-.349-1.091-1.078-1.101a1.57 1.57 0 0 0-.898.257c-.25.172-.404.404-.461.696-.078.416.237.71.945.883l.313.07c.718.172 1.268.37 1.648.594.38.218.672.492.875.82.208.328.305.721.29 1.18a2.24 2.24 0 0 1-.524 1.406c-.328.4-.782.71-1.36.93a4.707 4.707 0 0 1-1.812.304c-.938-.01-1.719-.278-2.344-.804-.625-.532-.943-1.217-.953-2.055l2.078.015c.02.808.453 1.217 1.297 1.227.406 0 .74-.083 1-.25.265-.167.424-.39.476-.672zm7.18 2.54c-.74-.006-1.396-.186-1.969-.54a3.328 3.328 0 0 1-1.273-1.469c-.281-.625-.39-1.312-.328-2.062l.023-.313a5.467 5.467 0 0 1 .719-2.265c.401-.688.917-1.216 1.547-1.586a3.808 3.808 0 0 1 2.094-.531c1.088.02 1.911.422 2.468 1.203.563.776.776 1.76.641 2.953l-.125.96h-5.18c-.02.548.112.985.399 1.313.286.328.677.498 1.172.508.802.021 1.505-.289 2.109-.93l1.008 1.25c-.318.48-.776.855-1.375 1.125a4.53 4.53 0 0 1-1.93.383zm.703-6.946a1.58 1.58 0 0 0-1.086.383c-.312.265-.593.726-.843 1.383h3.03l.048-.204c.03-.208.034-.406.008-.593-.053-.302-.18-.537-.383-.703-.203-.172-.461-.26-.774-.266z"/></g></svg>